<mxfile host="app.diagrams.net" modified="2023-03-02T06:38:26.184Z" agent="5.0 (Windows NT 10.0; Win64; x64) AppleWebKit/537.36 (KHTML, like Gecko) Chrome/110.0.0.0 Safari/537.36" etag="dzmz0CTWn0TX-6zB-uLi" version="20.6.0" type="github">
  <diagram id="R2lEEEUBdFMjLlhIrx00" name="Page-1">
    <mxGraphModel dx="1038" dy="579" grid="1" gridSize="10" guides="1" tooltips="1" connect="1" arrows="1" fold="1" page="1" pageScale="1" pageWidth="850" pageHeight="1100" math="0" shadow="0" extFonts="Permanent Marker^https://fonts.googleapis.com/css?family=Permanent+Marker">
      <root>
        <mxCell id="0" />
        <mxCell id="1" parent="0" />
        <mxCell id="EUv37TUMbDTJat97QOuf-1" value="学生" style="rounded=0;whiteSpace=wrap;html=1;" vertex="1" parent="1">
          <mxGeometry x="220" y="570" width="120" height="60" as="geometry" />
        </mxCell>
        <mxCell id="EUv37TUMbDTJat97QOuf-2" value="姓名" style="ellipse;whiteSpace=wrap;html=1;" vertex="1" parent="1">
          <mxGeometry x="130" y="430" width="100" height="60" as="geometry" />
        </mxCell>
        <mxCell id="EUv37TUMbDTJat97QOuf-3" value="课程号" style="ellipse;whiteSpace=wrap;html=1;" vertex="1" parent="1">
          <mxGeometry x="590" y="430" width="100" height="60" as="geometry" />
        </mxCell>
        <mxCell id="EUv37TUMbDTJat97QOuf-4" value="出生日期" style="ellipse;whiteSpace=wrap;html=1;" vertex="1" parent="1">
          <mxGeometry x="60" y="640" width="100" height="60" as="geometry" />
        </mxCell>
        <mxCell id="EUv37TUMbDTJat97QOuf-5" value="政治面貌" style="ellipse;whiteSpace=wrap;html=1;" vertex="1" parent="1">
          <mxGeometry x="90" y="720" width="100" height="60" as="geometry" />
        </mxCell>
        <mxCell id="EUv37TUMbDTJat97QOuf-6" value="课程名" style="ellipse;whiteSpace=wrap;html=1;" vertex="1" parent="1">
          <mxGeometry x="680" y="490" width="100" height="60" as="geometry" />
        </mxCell>
        <mxCell id="EUv37TUMbDTJat97QOuf-7" value="学分" style="ellipse;whiteSpace=wrap;html=1;" vertex="1" parent="1">
          <mxGeometry x="690" y="565" width="100" height="60" as="geometry" />
        </mxCell>
        <mxCell id="EUv37TUMbDTJat97QOuf-8" value="课时" style="ellipse;whiteSpace=wrap;html=1;" vertex="1" parent="1">
          <mxGeometry x="690" y="640" width="100" height="60" as="geometry" />
        </mxCell>
        <mxCell id="EUv37TUMbDTJat97QOuf-9" value="学号" style="ellipse;whiteSpace=wrap;html=1;" vertex="1" parent="1">
          <mxGeometry x="40" y="570" width="100" height="60" as="geometry" />
        </mxCell>
        <mxCell id="EUv37TUMbDTJat97QOuf-14" value="" style="edgeStyle=orthogonalEdgeStyle;rounded=0;orthogonalLoop=1;jettySize=auto;html=1;strokeColor=none;" edge="1" parent="1" source="EUv37TUMbDTJat97QOuf-10" target="EUv37TUMbDTJat97QOuf-1">
          <mxGeometry relative="1" as="geometry" />
        </mxCell>
        <mxCell id="EUv37TUMbDTJat97QOuf-10" value="性别" style="ellipse;whiteSpace=wrap;html=1;" vertex="1" parent="1">
          <mxGeometry x="50" y="490" width="100" height="60" as="geometry" />
        </mxCell>
        <mxCell id="EUv37TUMbDTJat97QOuf-12" value="" style="endArrow=none;html=1;rounded=0;entryX=0;entryY=0;entryDx=0;entryDy=0;exitX=0.772;exitY=0.917;exitDx=0;exitDy=0;exitPerimeter=0;" edge="1" parent="1" source="EUv37TUMbDTJat97QOuf-2" target="EUv37TUMbDTJat97QOuf-1">
          <mxGeometry width="50" height="50" relative="1" as="geometry">
            <mxPoint x="370" y="540" as="sourcePoint" />
            <mxPoint x="420" y="490" as="targetPoint" />
          </mxGeometry>
        </mxCell>
        <mxCell id="EUv37TUMbDTJat97QOuf-15" value="" style="endArrow=none;html=1;rounded=0;strokeColor=default;exitX=1;exitY=0.5;exitDx=0;exitDy=0;entryX=0;entryY=0.25;entryDx=0;entryDy=0;" edge="1" parent="1" source="EUv37TUMbDTJat97QOuf-10" target="EUv37TUMbDTJat97QOuf-1">
          <mxGeometry width="50" height="50" relative="1" as="geometry">
            <mxPoint x="150" y="730" as="sourcePoint" />
            <mxPoint x="200" y="680" as="targetPoint" />
          </mxGeometry>
        </mxCell>
        <mxCell id="EUv37TUMbDTJat97QOuf-17" value="" style="endArrow=none;html=1;rounded=0;strokeColor=default;exitX=1;exitY=0.5;exitDx=0;exitDy=0;entryX=0;entryY=0.5;entryDx=0;entryDy=0;" edge="1" parent="1" source="EUv37TUMbDTJat97QOuf-9" target="EUv37TUMbDTJat97QOuf-1">
          <mxGeometry width="50" height="50" relative="1" as="geometry">
            <mxPoint x="180" y="710" as="sourcePoint" />
            <mxPoint x="230" y="660" as="targetPoint" />
          </mxGeometry>
        </mxCell>
        <mxCell id="EUv37TUMbDTJat97QOuf-18" value="" style="endArrow=none;html=1;rounded=0;strokeColor=default;exitX=1;exitY=0.5;exitDx=0;exitDy=0;entryX=0;entryY=1;entryDx=0;entryDy=0;" edge="1" parent="1" source="EUv37TUMbDTJat97QOuf-4" target="EUv37TUMbDTJat97QOuf-1">
          <mxGeometry width="50" height="50" relative="1" as="geometry">
            <mxPoint x="250" y="750" as="sourcePoint" />
            <mxPoint x="300" y="700" as="targetPoint" />
          </mxGeometry>
        </mxCell>
        <mxCell id="EUv37TUMbDTJat97QOuf-19" value="" style="endArrow=none;html=1;rounded=0;strokeColor=default;exitX=0.7;exitY=0.167;exitDx=0;exitDy=0;exitPerimeter=0;entryX=0.1;entryY=1.037;entryDx=0;entryDy=0;entryPerimeter=0;" edge="1" parent="1" source="EUv37TUMbDTJat97QOuf-5" target="EUv37TUMbDTJat97QOuf-1">
          <mxGeometry width="50" height="50" relative="1" as="geometry">
            <mxPoint x="210" y="770" as="sourcePoint" />
            <mxPoint x="260" y="720" as="targetPoint" />
          </mxGeometry>
        </mxCell>
        <mxCell id="EUv37TUMbDTJat97QOuf-20" value="课程" style="rounded=0;whiteSpace=wrap;html=1;" vertex="1" parent="1">
          <mxGeometry x="510" y="570" width="120" height="60" as="geometry" />
        </mxCell>
        <mxCell id="EUv37TUMbDTJat97QOuf-22" value="开设学期" style="ellipse;whiteSpace=wrap;html=1;" vertex="1" parent="1">
          <mxGeometry x="610" y="710" width="100" height="60" as="geometry" />
        </mxCell>
        <mxCell id="EUv37TUMbDTJat97QOuf-23" value="" style="endArrow=none;html=1;rounded=0;strokeColor=default;exitX=0.75;exitY=0;exitDx=0;exitDy=0;entryX=0;entryY=1;entryDx=0;entryDy=0;" edge="1" parent="1" source="EUv37TUMbDTJat97QOuf-20" target="EUv37TUMbDTJat97QOuf-3">
          <mxGeometry width="50" height="50" relative="1" as="geometry">
            <mxPoint x="620" y="570" as="sourcePoint" />
            <mxPoint x="670" y="520" as="targetPoint" />
          </mxGeometry>
        </mxCell>
        <mxCell id="EUv37TUMbDTJat97QOuf-24" value="" style="endArrow=none;html=1;rounded=0;strokeColor=default;exitX=1;exitY=0.25;exitDx=0;exitDy=0;entryX=0;entryY=0.5;entryDx=0;entryDy=0;" edge="1" parent="1" source="EUv37TUMbDTJat97QOuf-20" target="EUv37TUMbDTJat97QOuf-6">
          <mxGeometry width="50" height="50" relative="1" as="geometry">
            <mxPoint x="600" y="700" as="sourcePoint" />
            <mxPoint x="650" y="650" as="targetPoint" />
          </mxGeometry>
        </mxCell>
        <mxCell id="EUv37TUMbDTJat97QOuf-25" value="" style="endArrow=none;html=1;rounded=0;strokeColor=default;exitX=1;exitY=0.5;exitDx=0;exitDy=0;entryX=0;entryY=0.5;entryDx=0;entryDy=0;" edge="1" parent="1" source="EUv37TUMbDTJat97QOuf-20" target="EUv37TUMbDTJat97QOuf-7">
          <mxGeometry width="50" height="50" relative="1" as="geometry">
            <mxPoint x="650" y="690" as="sourcePoint" />
            <mxPoint x="700" y="640" as="targetPoint" />
          </mxGeometry>
        </mxCell>
        <mxCell id="EUv37TUMbDTJat97QOuf-26" value="" style="endArrow=none;html=1;rounded=0;strokeColor=default;entryX=0;entryY=0.5;entryDx=0;entryDy=0;exitX=0.917;exitY=1.01;exitDx=0;exitDy=0;exitPerimeter=0;" edge="1" parent="1" source="EUv37TUMbDTJat97QOuf-20" target="EUv37TUMbDTJat97QOuf-8">
          <mxGeometry width="50" height="50" relative="1" as="geometry">
            <mxPoint x="600" y="750" as="sourcePoint" />
            <mxPoint x="650" y="700" as="targetPoint" />
          </mxGeometry>
        </mxCell>
        <mxCell id="EUv37TUMbDTJat97QOuf-27" value="" style="endArrow=none;html=1;rounded=0;strokeColor=default;entryX=0.5;entryY=0;entryDx=0;entryDy=0;exitX=0.5;exitY=1;exitDx=0;exitDy=0;" edge="1" parent="1" source="EUv37TUMbDTJat97QOuf-20" target="EUv37TUMbDTJat97QOuf-22">
          <mxGeometry width="50" height="50" relative="1" as="geometry">
            <mxPoint x="460" y="770" as="sourcePoint" />
            <mxPoint x="510" y="720" as="targetPoint" />
          </mxGeometry>
        </mxCell>
        <mxCell id="EUv37TUMbDTJat97QOuf-28" value="选课" style="rhombus;whiteSpace=wrap;html=1;" vertex="1" parent="1">
          <mxGeometry x="380" y="565" width="90" height="70" as="geometry" />
        </mxCell>
        <mxCell id="EUv37TUMbDTJat97QOuf-29" value="" style="endArrow=none;html=1;rounded=0;strokeColor=default;exitX=1;exitY=0.5;exitDx=0;exitDy=0;entryX=0;entryY=0.5;entryDx=0;entryDy=0;" edge="1" parent="1" source="EUv37TUMbDTJat97QOuf-1" target="EUv37TUMbDTJat97QOuf-28">
          <mxGeometry width="50" height="50" relative="1" as="geometry">
            <mxPoint x="360" y="710" as="sourcePoint" />
            <mxPoint x="410" y="660" as="targetPoint" />
          </mxGeometry>
        </mxCell>
        <mxCell id="EUv37TUMbDTJat97QOuf-30" value="n" style="text;html=1;align=center;verticalAlign=middle;resizable=0;points=[];autosize=1;strokeColor=none;fillColor=none;" vertex="1" parent="1">
          <mxGeometry x="345" y="565" width="30" height="30" as="geometry" />
        </mxCell>
        <mxCell id="EUv37TUMbDTJat97QOuf-31" value="" style="endArrow=none;html=1;rounded=0;strokeColor=default;exitX=1;exitY=0.5;exitDx=0;exitDy=0;entryX=0;entryY=0.5;entryDx=0;entryDy=0;" edge="1" parent="1" source="EUv37TUMbDTJat97QOuf-28" target="EUv37TUMbDTJat97QOuf-20">
          <mxGeometry width="50" height="50" relative="1" as="geometry">
            <mxPoint x="470" y="730" as="sourcePoint" />
            <mxPoint x="520" y="680" as="targetPoint" />
          </mxGeometry>
        </mxCell>
        <mxCell id="EUv37TUMbDTJat97QOuf-32" value="m" style="text;html=1;align=center;verticalAlign=middle;resizable=0;points=[];autosize=1;strokeColor=none;fillColor=none;" vertex="1" parent="1">
          <mxGeometry x="470" y="570" width="30" height="30" as="geometry" />
        </mxCell>
        <mxCell id="EUv37TUMbDTJat97QOuf-38" value="成绩" style="ellipse;whiteSpace=wrap;html=1;" vertex="1" parent="1">
          <mxGeometry x="370" y="480" width="100" height="60" as="geometry" />
        </mxCell>
        <mxCell id="EUv37TUMbDTJat97QOuf-39" value="" style="endArrow=none;html=1;rounded=0;strokeColor=default;exitX=0.5;exitY=0;exitDx=0;exitDy=0;entryX=0.5;entryY=1;entryDx=0;entryDy=0;" edge="1" parent="1" source="EUv37TUMbDTJat97QOuf-28" target="EUv37TUMbDTJat97QOuf-38">
          <mxGeometry width="50" height="50" relative="1" as="geometry">
            <mxPoint x="390" y="760" as="sourcePoint" />
            <mxPoint x="440" y="710" as="targetPoint" />
          </mxGeometry>
        </mxCell>
        <mxCell id="EUv37TUMbDTJat97QOuf-40" value="老师" style="rounded=0;whiteSpace=wrap;html=1;" vertex="1" parent="1">
          <mxGeometry x="360" y="780" width="120" height="60" as="geometry" />
        </mxCell>
        <mxCell id="EUv37TUMbDTJat97QOuf-43" value="政治面貌" style="ellipse;whiteSpace=wrap;html=1;" vertex="1" parent="1">
          <mxGeometry x="520" y="790" width="100" height="60" as="geometry" />
        </mxCell>
        <mxCell id="EUv37TUMbDTJat97QOuf-44" value="性别" style="ellipse;whiteSpace=wrap;html=1;" vertex="1" parent="1">
          <mxGeometry x="500" y="860" width="100" height="60" as="geometry" />
        </mxCell>
        <mxCell id="EUv37TUMbDTJat97QOuf-45" value="工号" style="ellipse;whiteSpace=wrap;html=1;" vertex="1" parent="1">
          <mxGeometry x="370" y="890" width="100" height="60" as="geometry" />
        </mxCell>
        <mxCell id="EUv37TUMbDTJat97QOuf-46" value="姓名" style="ellipse;whiteSpace=wrap;html=1;" vertex="1" parent="1">
          <mxGeometry x="260" y="860" width="100" height="60" as="geometry" />
        </mxCell>
        <mxCell id="EUv37TUMbDTJat97QOuf-47" value="出生日期" style="ellipse;whiteSpace=wrap;html=1;" vertex="1" parent="1">
          <mxGeometry x="190" y="790" width="100" height="60" as="geometry" />
        </mxCell>
        <mxCell id="EUv37TUMbDTJat97QOuf-48" value="" style="endArrow=none;html=1;rounded=0;strokeColor=default;exitX=1;exitY=0.5;exitDx=0;exitDy=0;entryX=0;entryY=0.5;entryDx=0;entryDy=0;" edge="1" parent="1" source="EUv37TUMbDTJat97QOuf-47" target="EUv37TUMbDTJat97QOuf-40">
          <mxGeometry width="50" height="50" relative="1" as="geometry">
            <mxPoint x="130" y="930" as="sourcePoint" />
            <mxPoint x="180" y="880" as="targetPoint" />
          </mxGeometry>
        </mxCell>
        <mxCell id="EUv37TUMbDTJat97QOuf-49" value="" style="endArrow=none;html=1;rounded=0;strokeColor=default;exitX=1;exitY=1;exitDx=0;exitDy=0;entryX=0;entryY=0;entryDx=0;entryDy=0;" edge="1" parent="1" source="EUv37TUMbDTJat97QOuf-40" target="EUv37TUMbDTJat97QOuf-44">
          <mxGeometry width="50" height="50" relative="1" as="geometry">
            <mxPoint x="300" y="830" as="sourcePoint" />
            <mxPoint x="370" y="820" as="targetPoint" />
          </mxGeometry>
        </mxCell>
        <mxCell id="EUv37TUMbDTJat97QOuf-50" value="" style="endArrow=none;html=1;rounded=0;strokeColor=default;exitX=0.5;exitY=0;exitDx=0;exitDy=0;entryX=0.5;entryY=1;entryDx=0;entryDy=0;" edge="1" parent="1" source="EUv37TUMbDTJat97QOuf-45" target="EUv37TUMbDTJat97QOuf-40">
          <mxGeometry width="50" height="50" relative="1" as="geometry">
            <mxPoint x="400" y="910" as="sourcePoint" />
            <mxPoint x="470" y="900" as="targetPoint" />
          </mxGeometry>
        </mxCell>
        <mxCell id="EUv37TUMbDTJat97QOuf-51" value="" style="endArrow=none;html=1;rounded=0;strokeColor=default;exitX=1;exitY=0.5;exitDx=0;exitDy=0;entryX=0;entryY=1;entryDx=0;entryDy=0;" edge="1" parent="1" target="EUv37TUMbDTJat97QOuf-40">
          <mxGeometry width="50" height="50" relative="1" as="geometry">
            <mxPoint x="325" y="860" as="sourcePoint" />
            <mxPoint x="395" y="850" as="targetPoint" />
          </mxGeometry>
        </mxCell>
        <mxCell id="EUv37TUMbDTJat97QOuf-52" value="" style="endArrow=none;html=1;rounded=0;strokeColor=default;exitX=0;exitY=0.5;exitDx=0;exitDy=0;entryX=1;entryY=0.5;entryDx=0;entryDy=0;" edge="1" parent="1" source="EUv37TUMbDTJat97QOuf-43" target="EUv37TUMbDTJat97QOuf-40">
          <mxGeometry width="50" height="50" relative="1" as="geometry">
            <mxPoint x="330" y="860" as="sourcePoint" />
            <mxPoint x="400" y="850" as="targetPoint" />
          </mxGeometry>
        </mxCell>
        <mxCell id="EUv37TUMbDTJat97QOuf-55" value="" style="endArrow=none;html=1;rounded=0;strokeColor=default;entryX=0;entryY=0.5;entryDx=0;entryDy=0;" edge="1" parent="1" target="EUv37TUMbDTJat97QOuf-57">
          <mxGeometry width="50" height="50" relative="1" as="geometry">
            <mxPoint x="430" y="780" as="sourcePoint" />
            <mxPoint x="475" y="730" as="targetPoint" />
          </mxGeometry>
        </mxCell>
        <mxCell id="EUv37TUMbDTJat97QOuf-56" value="" style="endArrow=none;html=1;rounded=0;strokeColor=default;entryX=0.5;entryY=1;entryDx=0;entryDy=0;exitX=1;exitY=0.5;exitDx=0;exitDy=0;" edge="1" parent="1" source="EUv37TUMbDTJat97QOuf-57" target="EUv37TUMbDTJat97QOuf-20">
          <mxGeometry width="50" height="50" relative="1" as="geometry">
            <mxPoint x="475" y="660" as="sourcePoint" />
            <mxPoint x="480" y="740" as="targetPoint" />
          </mxGeometry>
        </mxCell>
        <mxCell id="EUv37TUMbDTJat97QOuf-57" value="教授" style="rhombus;whiteSpace=wrap;html=1;rotation=-45;" vertex="1" parent="1">
          <mxGeometry x="460" y="670" width="90" height="70" as="geometry" />
        </mxCell>
        <mxCell id="EUv37TUMbDTJat97QOuf-58" value="1" style="text;html=1;align=center;verticalAlign=middle;resizable=0;points=[];autosize=1;strokeColor=none;fillColor=none;" vertex="1" parent="1">
          <mxGeometry x="425" y="725" width="30" height="30" as="geometry" />
        </mxCell>
        <mxCell id="EUv37TUMbDTJat97QOuf-59" value="n" style="text;html=1;align=center;verticalAlign=middle;resizable=0;points=[];autosize=1;strokeColor=none;fillColor=none;" vertex="1" parent="1">
          <mxGeometry x="525" y="635" width="30" height="30" as="geometry" />
        </mxCell>
      </root>
    </mxGraphModel>
  </diagram>
</mxfile>
